<?xml version="1.0" encoding="UTF-8"?>
<svg id="Ebene_1" xmlns="http://www.w3.org/2000/svg" version="1.1" viewBox="0 0 1024.1 1536">
  <!-- Generator: Adobe Illustrator 30.2.1, SVG Export Plug-In . SVG Version: 2.1.1 Build 1)  -->
  <defs>
    <style>
      .st0 {
        fill: #1d1d1b;
      }
    </style>
  </defs>
  <path class="st0" d="M719.4,1169.2c-2.6-11.7,1.1-25.4,6.9-25s6.3,11.5,20.4,6.8c39.2-11.5,16.8-73.3-16.5-72.3-16,4.4,12,44.9-33.8,31.8-51.6,182.9-324,184.6-375.1,0-11.3,2.8-27.2,5.1-28.9-9.7-.8-8.3,3.3-15.1-1.1-19.7-26.1-17-67.7,59.8-16.6,71.2,9.9,1.8,12.7-7.3,17.8-7.7s8.6,14.8,5.9,25.4-9,15.2-18.7,17.3c7.8,10,12.8,21.2,11.3,33.6-1.1,13.1-16.7,26.9-28.7,18.6-2-3,5.3-9.9,2-17.7-6.5-11-25.5-6.9-39.1-25.4-14.5,24.5-54.4,5.7-50.7-11.9,1.3-3.5,10.3.6,15.8-7.5,7.5-17.4-17.4-32.4,7.8-64.6,32.1-40.9,13.6-38.4,64.7-69-1.8-2.4-4-4-6.6-4.8-11.3-3.7-17.8-15.1-13.4-26.6,1.8-4.7,10.7-22.2,15.2-22,4.5.2,8.6,9.4,17,9.2,16.2-.5,30.9-14.9,29.6-31.6-7.7-19.9-42.9-40.2-14.5-80.9-27,6.3-43.8-7-46.2-34.3-.2-8.8,10.5.6,19-11,24.5-46.8,30.2-84.9,77.6-118.7,3-2.8,17.1-11.4,17.4-16.5-38.6-.8-128.2,62.6-87.9,101.9,2.2,10.1-16.9,8.8-23.4,7.1-6.5,38.1-48.4,11.8-39.3-16.9l5.3-18.1c-41.9,21.1-57.5,96.3-9,119-3.4-22.6,26.8-29.6,37.4-11.6,29.5,36.8-.3,64.4-40.6,63.1,41,43.1,40.1,91.7-12.2,124.4-11.1,11.6,8.6,15.4.8,24-15.7,15.9-46.1,6-48.2-16.9-.6-4.1-1.6-8.4-3.7-12-9.5-.4-11.4,34-22.9,30.9-4.6-6-11.1-18.1-19.1-20.2-10-4.3-15.5-13.8-15-24.2.9-20.6,19.5-26.7,38-27.6-8.5-20.6,9-43.1,30.8-36.7,10.9,3.3,2.4,12.3,6.2,18.6,25.6,31.1,49-2.4,20.2-27.8-7.2-6.7-14.8-12.8-23.1-18.3-83.1-54.9-69.2-194.4,18.9-237.6-6-2-11.5-4-16.9-6.4-13.2-5.9-14.3,12.4-18.9,7.7-12.3-10.9-26.6-28.5-13.1-43.9,11.8-13.1,30-3.9,48-23,5-5.3,11.4-9,18.7-9.7,20.2-1.2,10.5,19.6,25.3,22.9,41.6,5.6,90.7-5.2,123.6-29.9-254.7,77.3-281.3-242.2-70.1-200.2,40.2,5.2,23.8-15.5,38.6-14.5,8.2,1.7,12.9,10.2,11.7,18.6-1.3,9,8.1,6.4,16.3,16.2,8.3,7.7,5.8,29.4-8.4,23.5-17.7-11.3-28.9,12.4-11.3,16.2,1.9-.9,4.4-3.9,6.1-5.6,8.5-7.9,23.4-1.5,25.1,10.2,3.7,44.2-60.2,41.8-82.1,15.5-9.3,5.9-20.3,8.5-30.5,3.9-11.3-5.1-23-24.3-12.6-23.9,20.1,1.2,18.7-26.5,2.4-31.8-27.5-5.8-53.5,20.9-60.5,45.9-9,29.8,16.6,75.5,50.7,66.6-25.4-20.2-8.3-34.6,17.3-37.8,6.5-1.3,23.4-5.7,26.9,1.8,25.3,49.7,120.7,7.5,147.7-23.6-4.5-8.5-1.3-17.6,8.5-20.9-67.3-85,63.9-164.9,7.5-231.8-21.5,34-60.7-58-31-72.5,19.6-5.1,31.4,30.2,49.8,44,18.9,17.9,29.2,41.6,32.1,67.5,6.8,61-21.1,68.8-11.8,121h31.2l15.8-41.7,15.9,41.8h29.9c5-23.2-3.7-49.6-9.9-71.8-9.7-35.5-2.2-85.1,25.4-112.3,11.1-10.9,21-21.7,29.9-34.5,57-64.2,32,100.1-6.9,58.4-56.2,67.5,74,146.2,7.5,232.5,19.5,8.7,4,19,10.7,25.3,26.9,24.6,127.4,65.2,148,18.6,5.2-12.5,27.7-2,36.8-1.4,23.7,4.6,29.4,21,9.2,35.9,21.6,7,40-14.8,46.6-32,13.9-34.1-12.2-70.8-45.3-80-26.5-7.9-46.4,32.8-11,32.9.5,22.5-29.8,34.7-46.6,19.2-19.3,19.3-56.4,31.9-75.9,5.7s-8.9-26,1.1-31.9,15.9-.7,24,6.3c1.8,1.3,6-2,7.1-3.9,6-10.4-7.7-18.6-16.4-13-9.2,5.9-17.3-.2-16-10.6,1.9-19,22.4-16.9,20.7-27.8-3.5-10.4,13.1-26.9,19-13.3,5.8,17.6,35.5,8.4,49.6,7,220.4-12.1,150.4,278.7-84.4,200.8,34,25.1,84.7,36.5,126,30.9,11.8-2.1,6.8-16.1,14.5-20.1,16.3-8.5,27.9,8.9,40,16.9,8,5.6,27,4.3,36,13,16,17.7.3,33-12.9,45.7-5.7-.4-6.3-14.9-18.6-8.3s-10.3,4.2-16.2,5.7c77.2,34.3,110.4,136,57,204.3-24.7,38.1-86.7,53-69.8,85.8,8,8.9,23,2.9,28.7-6.4,4.1-6.7-3-15.9,5.1-19.5,14.7-6.9,28.1,5.5,37.6,15.5,4.1,5.7,1.5,13.4-.8,19.4-1.5,3.8,9.7,1.8,21.5,10,18.1,11.6,12.8,43.4-9.2,46.4-3.7,3.8-10.6,20.7-17.9,18.1-5.3-5.5-13.5-31.4-18.6-30.2-1.6,2.4-3.3,10.5-4,14-3.7,21.3-31.6,26.5-47.3,15.1-10.5-9.1,11.5-14.3-1.9-26.8-49.4-34-46.7-81.5-8.5-121.6-107.1-6-12.7-124.3-1.2-51.9,48.1-24.7,31.4-93.6-8.2-119.6-2.4-1.8-2,.2-1.9,1.9,24.3,41.2-26.7,75.8-34,32.8-6.7,2.6-29.6,2.2-22.8-8.5,35.9-39-58.9-94.3-91.8-100.6-12.8-1.6,45.8,36.1,47,42.2,22.1,25.5,31.2,58.6,47.8,87.5,6.4,11.7,11.7,11.6,22.5,13,1.4,6.8,0,12.9-2.6,19.1-14.9,36.2-49.1,11.8-41.8,22.1,13.1,18.4,12.4,46.5-6.6,62.9-27.3,20.1,11.2,64.3,33.7,39.3,6.5-7.3,17.7,16.8,19.2,22.6,3.8,17.6-8.8,22.3-21.8,28.9,30.4,20.4,36.9,21.6,53.9,54.6,8,13.5,33,32.4,18.7,65.9-1.6,3.6-1.4,9.1.2,12.4,3.4,6.9,12.2,6.1,14.7,7.7,7.8,14-31.6,40.4-49.9,14-12,14.7-27.2,14.3-35.5,20.8s3.1,21.3-3.5,23.2c-32.3,4.7-30.8-36.4-16.5-53.3.6-1.2-13.4-1.7-17.2-18.7v-.5ZM414.5,271.3c-1.5-13.7-1.2-25.9-.2-39,1-16.4-19.3-40-27.9-22.5-14.1,31.6,23.7,82.4,28.1,61.4h0ZM618.6,203.6c-31.7,10.9-14.6,44.1-20.3,68.3-.3,3.3,2.1,5.6,5.4,4.4,32.1-16.3,29.8-77.2,14.9-72.7h0ZM416.6,404.7c7.4-26.2,34.5-83.7,29.5-111.3,13.6,68.2-79.9,154.1-3.6,211,7.8,5.8,7.5-11.2,25.7-2.8l5.5-18.2c-8.1-12.1-13-24.5-16-38.6-7.7-5.5-24.7-12.3-2.5-12.1-.5-11.6-2.9-22.2-.2-32.8,23-69,22.5-120.9-36-170.5-1,12.4-5,29.3,5.1,38.9,58.5,71.3-68.6,146.2-10,229.6,13.8,18.1,24.2-.4,29.1,24.8-3.9,5-6.6,9-8.3,15.6,9.1-.6,57-9.5,52.2-20.6-2.2-1.4-10.3,1.3-12.7,1.6-3.8,6.9-11.3,10.7-19,8.2s-6-6.7-10.8-7.2l2-10.1c-41.4-21-44.5-65.7-30.1-105.5h0ZM573.7,337.1c16.1,55.7,62.2,134.5-6.1,172.5-.6,4.4-2,11.1,4.6,11.4l2.8-11.3c14-2.7,20.1-3.8,28-17.4,48.7-74.6-69.8-153.6-13.8-224,10.1-12.5,6.1-22.6,3.7-38.1-49.8,45.8-60.7,91-38.5,154.3,4.7,15.8,6.5,31.8,3.5,47.9l12.9,1.4c-4.6,5.2-9.3,7.8-14.5,11.4-4.2,12.7-8.7,25-15.6,36.3l6.6,19c21.1-3.2,16.5,9.8,25.6,2.4,70.7-56.9-19.2-144.8-5.7-213.1,0,15.7,1.1,32.3,6.6,47.3h0ZM541.6,496.3c-2.1-14.5-9.3-24.8-11.9-38l31.6-21.4-40.3-.7-13.6-36.4-13.2,35.9-41.4,1.2,33.2,22.4c-4.2,12.6-8.8,23.1-11.6,35.6l33.5-21.5,33.6,22.7v.2ZM283.1,492.3c2.6,9-2.9,29.3,5.8,33.9-4.7-17.8-1.1-21.2-3.1-38.8,2.5,5.5,3.5,11.5,4.7,17.2l10.9-4.5c-2.1-16.5,14.2-22.7,26.9-15.4.6.4,3.1.3,3.1-.4-.2-7.1-6.6-10.9-12.2-15.1,7-.1,12.1,5.4,14.6,11.9,4.4-16.7-15.4-22.9-27.6-25.1,5.4-3.2,12-9,6.6-15.5l-3.9,7.9c.1-3.1,2.2-14.1-3.1-13.9s-3,11.3-15.4,12.9c-29.3,4.5-62.5-12.3-91.2,0l15.1,2c22,2,47.6,27.3,33.7,49.1,9.1-50.1-62.1-63.4-87.5-27.8,58.4-32.1,108.2,23.8,61.2,38.6,11.2,28.8,41.8,21,47.9-7.5-.9,10.7,1.1,25.1,14.9,25.1-4.3-8-4.4-27.8-1.5-34.8v.2ZM729.1,498.2c3.5,9,2.7,18.5-.8,28.3,14.4-1.5,13-13.3,13.9-22.6l6.2,12.2c9.3,18.7,36.8,10.8,41.6-7.5-28.6-3.6-21.3-39.1-4-52.5-18.6,5.8-27.3,24.5-21.8,42.9-20.6-28.4,21.2-50.5,45.9-52.2-28.7-12.1-91.4,18.4-103.6-10.1-.5-1.2-3.9-1.4-4.4-.5-3.5,5.6,3,11.5,5.4,14.8-6.1-.5-6.9-6-9.1-10.8-5.3,7.2.7,12.8,7.9,15.7-12.1,1.5-32.6,8.1-29.2,23.2l6.2-5.9c1.1,3.5-5.5,6.6-3.4,11.3,17.5-9,38.1.8,27,21.3,5.1-1.3,10.9-3.7,16.1-.9,1.1-7.2.7-17.4,6.4-22.9-3.7,14.2-2.1,28.8-5.1,43.2,8.7-6.4,3.6-18.7,4.9-27h-.1ZM482,460.2l-18.5-11.1c2.1,11.6,5.9,19.6,12.5,28.7l6-17.5h0ZM539,475.5c6-8.8,9.2-16.2,10.9-25.8l-16.3,10.1,5.4,15.7h0ZM878.4,498.5c-13.4-37.3-83.3-73.7-101.7-23.2,29-26.7,76.5-13.2,91,22.5,3.5,1,6.9,1.4,10.7.7ZM164.3,502.8c6-10.9,14.3-19,24.3-26.8-9.8,1.6-18.4,12.8-25.7,17.4,3.2-10.9,21.6-19.9,30.3-23.9-31.4,3.2-50.8,35-47.2,65.5-9.7-24.9,6.4-48.9,25.3-64.7-53.2,16.6-37.4,107.9,13.6,115.8-25.2-22.1-37.2-53-20.7-83.3h0ZM841.3,576.1c43.5-25.6,34.3-95-15.5-105.7,8.4,6.1,18.1,10.6,23.2,20.8l-15.9-11.2c31.3,27,33.4,64.2,8.2,96.1h0ZM509.7,510.5l5.1,2.5c-2-17.4,5.4-13.8,14-21.6l-20.8-13.8-22.7,14.9c9.3,8.4,12.5,2.2,13.8,18.5,4.9-1.9,5.4-4.2,10.6-.5h0ZM832.1,478.6c0-.8-1.2-.8-1.2,0s1.2.8,1.2,0ZM564,525c-16.8,8.6-34.3-3.9-20.5-21.1l-10.1-8.4.2,9.5c.3,11.7-10.5,14.1-6.4,18.1,10.9,8.6,37.1,15.3,51.1,13.1-.6-5.1-8.2-13.3-14.3-11.2h0ZM481,512.4c-1.2-5.6-.8-9-.3-14.6-4.2,1.8-7.2,3.6-9.7,5.9l4.5,9.7c1.6.3,5.2-.4,5.5-1ZM528.5,506.6c3.1-10.8-10.4-8.8-10,.6,1.3,6.1,7.8,4.6,10-.6ZM706.6,512.7c-5.1,7.3-13.1,10-22.1,11.7,9.3,9.4,20.7-.3,27.9-7.4-2.8,23.2-42.9,18.3-37.3-4.7l4.8,7.9c9.8-.6,15.5-6.8,10.2-16.1-8.5-12.8-24.6,1.8-18.8,14.3,8.6,23.2,41,25.9,58.7,12.1-3.8-.7-8-1.1-10-3.2l1.7-14.6c.2-1.3-2.7-4.7-3.7-3.9l-3.6,2.7c-.4-4-21.6-5.8-17.6,1,2,0,7.6.2,9.6.2h.2ZM304.9,518.9c-3.1-3-3-.7-5,1.4l-4.5-14.4c-1.8,1.7-4.1,3.9-5.5,5.7l4.7,17.5-11.4,2.4c19.8,17.5,72.2,4.8,56-27.5-8.7-9.3-18.9-2.9-18.9,9-7.8-6.6-5.9-2-16.5-8.5s-5.6-.4-7.5.7c7.9,8.3,18.9,16,30.8,15.9,2.3,0,4.9-2.8,6.8,0l3.6-6.9c2.8,6.1-1.5,11.1-5.9,14.6-3.8-8.1-6.5,6.1-26.6-10h-.1ZM492,510.1c4.4-3.4,1.9-8.4-2.3-9.9-9-.7-5.4,14.2,2.3,9.9ZM752.8,808.7c9.7,7.5,18.8,1,24.4-8.2-7.4,50.6,43.9,26.7,27.7-9.5-5.2-7.9-4.4-22.2,7.4-13.4,20.5,19.5,28,28.3,39,55,.8,1.3,1.3,2,1.2.4-1-16.8-17.3-36-25.7-49.6l1.2-.5c82.3,85.7-25.5,197.5-55.3,124.8-4.7,4.8,10.9,23.9,4.6,19.9l-3.9-5.1c-.7-1.6-1.2-2.5-1.4-.5,42.5,77.9,185.9-52.7,81-149.1,60.6,41.4,44.4,114,4,163.7-10,13.2-31.9,39.2-31.4,55.2.6,2.1.8,2.3,1.1.4,3.2-14.7,15.8-31.6,27-41l.5,1.5c-6.5,7.5-15.8,15.7-18.9,25.6,12.7-12.8,33.1-29.4,46.9-41.2.7-1.2.9.2.9,1.6-11,12.3-24.1,21-35.4,32.8,108.2-53,97.5-199.2-11.4-244.8-2.2-1.8-2.5-3.4,1.2-3.8,26,0,19.2-11.2,37.1-5.5-1.2-6-6.9-8.4-12.4-10.3,9.7-3.4,15.6,8,18.3,15.7,11.5-8.4,21.3-25,8.8-36.6-9.4-8.2-27.6-5-41.3-15.4,2.2,12.7-3.6,25.3-16.6,28.1l8-8.4c9.6-8.7,7.1-30.8-7.1-32.6,26.7,29.6-21.1,51-46.3,46.1-50.8-7.2-103.9-32-138.4-70.1-2.3-3.4.5-5.4,4-4.9,91.2,38.5,283.5,15.9,231.9-122.3-1.8-4-8.9-6.5-13.1-5.1,7.9,24.8-.4,50.7-16.8,68.7-21.1,23.1-53.7,23.6-55.5,14.6-.8-4,5.8-7.2,10.9-12.1,14.8-20.7-29.4-24.7-42.4-25.1,6.7,79.7-121.5,47.9-158.6,16.3,24.2,27.6,64.6,33.5,97.9,39.7-35.3-.4-67.9-12.2-97.2-32.4,14.5,22.6,57.8,32.8,83,38.9-17.3.5-31.7-7.4-48.4-11,62.4,34,162.9,20.4,213.1-22.9-62.8,60.9-176.9,60.3-246.3,9,18.5,24.7,55.8,31.8,83.5,41.2-31-4.1-57.8-12.4-82.6-32.6-10.3,10.6,42,29.4,50.7,32.3l41.5,10.9c-30.6-3.3-68.1-14.7-94.4-31.1,3,9.1,18.7,14.8,24.1,22.2-10.3-2.9-16.9-10.9-26-16.6,4.1,14.2,36.7,30.5,47.1,41-16.9-7.3-31.9-20.9-47.2-32.2,3.5,14.3,30.4,26.8,39.2,37.8-10-5.4-19.2-11.9-28.5-19-3.8-2.9-6.1-7.7-11-9.2,7.1,14.6,25.1,24.5,37.1,34.2-16.4-6.1-28.5-18.4-40.5-30.6,2.8,13.5,19.8,24.3,29.2,33.1-10.4-2.5-18.3-13.7-27.5-20,14.8,29.3,53.9,39.8,81,53.1,29,17,87.2,49.5,84.8,87.5-2.4-15.5-11-29.9-23.3-38.6,11.9,18.3,22.6,41,5.6,59.9h0ZM470.1,513.3c.2-12.8-20-12.8-19.8,0-.2,12.8,20,12.8,19.8,0ZM563.1,513.6c.2-13-20.2-13-20,0-.2,13,20.2,13,20,0ZM412.6,524.9c6.6-1.1,6.6-12.2,1.3-14.5-7.5-.5-9.5,14-1.3,14.5ZM601.8,525.5c5.3-2,4.8-12.6-.5-14.5-7.8-1.6-7.3,15.8.5,14.5ZM425.2,524.2c-.5-4.8,0-8.1,2.2-12-.6-.9-5.3-1-5.6.6l-2.3,12.5c1.1,1,5.7.5,5.6-1.1h0ZM435.2,523.8c3.9-3.3,2.8-9.2-1.9-10.1-8.9.5-5.9,14.8,1.9,10.1ZM507.6,568.6c29-.7,55.5-9.8,80.8-23.7-28.6-3.7-62.7-8.6-82.9-31.5-18.1,22.7-52.1,27.5-78.7,32.4,17.1,14.3,59.8,23.4,80.9,22.8h-.1ZM582.5,525.4c6.4-1,5.2-11.7-1.1-11.5-6.2,1.6-6.5,12.2,1.1,11.5ZM133,523c0-1,0-.7,0,.4.2,2.2.2,2.1,0-.4ZM354.8,755.9l17.5-8.1c2-.9,3.1-5.2,2.9-6.7l-12.4,3.9c9.7-5.8,18.2-12.2,27.9-17.3,9.9-5.2,20.2-9.4,24.3-21.6-14.7,12.1-30.3,22.9-48.2,30.1,16.6-13.4,40.8-21.9,50.1-42.3-12.4,8.4-22.3,18.6-35.7,23.7,10-8.3,24.8-19.4,32.7-29.8l-1.1-1.3c-13.3,9.3-25.2,19.6-40.6,24.9,12.6-10.4,35.8-22.9,42.8-38.4-5.8,3.5-8.6,8.6-15.2,11.1,2.2-3.4,15.3-14.3,13.8-19-8.1,5.6-12.6,13.5-22.6,16.2,5.3-6.5,18.3-12.5,20.8-22.9-18.5,17.9-40.4,30.4-65.8,35.9,22.1-11.5,50.8-22.3,63.3-45.5-11.8,8.4-15.9,14.9-29.8,21.6-.8-.7-1.5-1.5-.5-1,9.2-6.8,26.7-18.6,29.9-29.7-8.9,6.5-23.5,21.2-34.2,24.1,10-9.3,27.9-18.9,33.5-32.1-14.5,9.7-27.3,23.3-44.4,30.5,10.4-10.2,39.1-26.4,44.3-40.3-13.6,9.8-26.4,23-42.6,28.9,9.5-8.9,38.3-25.6,42.2-38.7l-14.3,10.4c-.7-.6-.8-.7-1.2-1.4,3.8-3.9,13.6-8.7,13.8-15.1-12.8,9.3-25.7,15.5-40.6,19.5s-19.5,8.1-30.6,8.5c19.4-7.8,58.5-17.5,70.3-36.3-19.3,10-41.8,24.5-64.4,25,15.3-7.4,60.2-19.5,64.3-36.4-37,28.9-87.1,39.2-133.8,34.1,37.4-.2,77.3-3.8,109-24.6-10.2,3.4-25.7,11.5-36.7,11.5,20.8-7.4,48.3-16.4,62.8-36-23.1,16.4-48.6,29.1-77.5,32.1,26.6-8,56.1-14.9,75.2-36.4-35.1,31.5-161.5,58.3-154.6-16.6-3.2-4-24.4,2.6-28.4,2.7-6.5,1.2-12.9,5.5-15.4,11.5-4.2,10.2,10.7,13.9,12.7,19.9,1.9,10.8-22.3,6.7-27.9,8.1,15.7,9.1,31.9,12.2,48.6,18.4-32.3-4.6-65.5-19.3-89.2-42.4,4.4,11.7,17.2,20.6,26.9,28.9-8.7-2.1-14.7-8.5-20.8-14.5-14.6-14.4-12.3-22.1-19.6-37.8,6.8,78.4,94.8,93.5,158.2,89.7-77.1,9.5-164.6-16.9-162.8-108.9-16.8,119.3,119,139.9,206.8,111.6l25.4-8.2c1-.3,3.5.4,3.9,1.3-28.5,43.8-103.1,77-147.9,104.8,5.1-7.6,55.2-33.5,63.3-39.1-31.4,8.3-64.6,18.2-93.9,0-13.7-8.1-18.5-25.5-7.1-38.1-19.9,9.8-11.2,30.5,3.2,41.2-13-2.8-19.8-16.6-16.9-29.3-9.7,5.3-19.1,8.6-29.6,10.4-5.7,1-11.6,3.4-15.1,8.3-9.1,12.7.8,26.1,11.1,34.4,2.7-5.4,6.2-15.6,13.5-15.3l-7.2,8.8c5.4,0,9.9-1.4,13.9.8,14.9,9.4,29.9,2.3,24,10.4-92.5,40.7-109.7,187.9-17.3,238.2-5.8-8.9-23.4-21.4-25.9-30.1,14.5,13.5,38.4,33.4,50.1,49.3-4.3-15.2-16.4-22.9-23.9-34.8,13.5,9.8,21.8,23.6,29.4,37.6-1.9-12.5-16-31.8-23.9-42.1-32.5-41.4-66-111.1-19.9-153.5-40.4,51-14,129.2,44.9,151.5,22.2,9,64.1-7.3,53.8-35.3-34.7,74.4-131.3-46.1-60.5-118.5l-7.8,15.8,27.8-27.4c26.2-8.9-12.9,32,14.8,48.9,8.1,6.2,20.5.5,20.2-10.3l-1.1-16.6c4.9,9.8,15.8,17.9,25.5,9-28.8-27.8,10.5-66,31.3-84.4-7.8.3-30.8,24.4-36.9,28.6,13.7-18.7,49.9-45,72.8-53.8-5.1,6.5-23.7,12.4-28.6,20.9,13.5-8.2,87.9-34.9,46.9,0-75.1,53.5-49.2,145.1-98.9,145.8,9.7,29,46,15.8,59.4-3.2,5.7-5.3,3.9-28.8,5-35.7h101.4c-5-5.7-8.4-10.1-11.7-15.7-22.1,14.1-26.7,1.8-33.4-17.4-7.9,15.1-20.4,30.6-39.3,28.5-12.1-1-25.4-10.8-21.9-17.3s14.9-1.1,17.4-13.1c2.3-25.6,18.6-33.6,42.5-28.1.6-5,.9-9.5.7-13.7-6.8,2.2-11.4,3.9-17.7,5.1l.5-.3ZM254.5,554.1c-8.5,23.1,21,35.3,39.3,38.7,45.3,7.7,113.7-23.6,134.6-64-6.5,2.9-13.1,4.2-19.7,1.2-28.6,29.9-110.2,66-145.8,33.2l-8.3-9.1h0ZM585.6,536.1c-2-2.1-3.3-3.3-5-4.7-.7,3.4.9,6.4,5,4.7ZM761.4,552.7c-26.5,47.7-125.8,6.2-156.5-21l-14.1.3c17.8,45.7,138.4,85.8,169.9,37.3,3.3-5.1,4.8-11.6.7-16.7h0ZM601.3,749c2-7.4,5.4-13.4,11.8-18.2-5.8-3.5-24-12.6-24.7-18.7-8.2-54,26.1-112.9,1.1-164.8-24.7,12.7-52.8,22.5-80.6,24.5,1.1,62,1,184.1,1.4,246.8,9.6,2.3,16.3,8.4,20.4,17.3,18-2,38.7-5.2,53-16.9,18.7-13.4,7.8-33.1,17.6-69.9h0ZM430,818.9c16.4,12,36.4,16.2,55.6,16.6,4.4-10.2,11.7-15.7,23-16.5-1-62.4-.3-185.7-2-247.4-28.9-4.2-58.2-7.5-82.6-24.3-34.6,58.3,37,164.5-22.3,183.3l8.1,8.8c2.9,10,6,20,6.8,30.5,2.1,14.2-1.5,40.3,13.4,49h0ZM824.6,656.7c-15.6-1.7-2.5,17.8-20.6,21.2-47.7,8.1-101-10.8-141.7-34.8,37.6,36.3,96.6,64.9,149.1,53.1,21-4.6,38-27.7,13.2-39.6h0ZM180.4,673.4c.5,7.4,4.6,12.9,10.3,16.6,52.7,32.5,124.6-5.1,161.9-45.9-19.4,19.2-145.5,60.8-151.3,21-2.7-16.5-23-4.7-20.9,8.3h0ZM777.7,648.4c-26.2,2-51.6.4-77.9-3.3,24.3,10.1,53.1,8.3,77.9,3.3ZM281.5,651.9c11.6.2,23.1-1.6,33.8-5.5-13.5,1.3-50.6,4.9-63.7,5.1l29.9.4ZM652,751.5l-11.5-2.3,2.5,15.1c19.3-6.5,41.3,2.5,43,24.1,1.9,16.6,16.3,12.1,18.8,17.4,3.2,6.7-10.6,15.5-19.5,17-20.6,3.7-34.6-12.3-43.4-29.1-6.8,21.8-12.8,32.8-35,16.5-3.4,6.8-6.7,11.5-11,17.3h105.8c1.7,9-.8,18.7,1.9,27.3,7.7,25.2,52.4,42.6,63.2,11.1-56.1-5.4-20.4-90.7-117.8-159.2-1.7-1.7-2.4-5.1-.6-6.9,28.3,3.5,52.2,19.1,77.8,30.6-16.9-12.5-33-26.5-52.5-34-24.7-9.1-54.7-19.4-72.3-40.3,1.3,10.3,18.1,19.4,24.7,25.9-9.8-2-19.2-13.4-26.7-19.7,2,9.8,14.1,17.1,18.8,23.6-8.5-3.4-12.8-10.1-19.5-15.7,8.7,19.6,30.9,29.1,46.3,42.7-17.1-7.5-31.4-18.8-45.6-30.4,4,15.4,26.6,26.9,37.3,36.8-9-1.3-31.9-22.8-39.4-27.9-2.8,8.7,15.2,16.2,20.3,22.8,9.6,9.6,23.6,13.4,33.4,22.5-15.3-5.1-34.2-20.3-47.2-29.8,10.1,19.2,31.6,23.3,47,36.3l-12.9-4.3c.9,6.9,9.3,9.6,14.4,12.3l-.3.3ZM605.2,715.2c-2.1-2.9-4.2-5.4-6.7-8,.9,7.2,6,11.8,12.2,14l-5.6-6h0ZM379.9,767.8c.6-7,2.8-31,11.7-32.1s10.4,6.8,11.7,12.1c4.3,18.4,6.4,43.5,9,62.4,4.5-.7,5.3-4,4.9-7.7-1.6-15.5-2.8-30.4-5.3-45.7-.7-13.2-15-33.6-27-17.7-9.4,10.2-10.4,78.2,9.5,73.6,13.5-6,14.2-13.4,9.1-10.1-22.3,22.6-23.4-19.9-23.6-34.8h0ZM623.4,809.7c-4.6.6-10.5-7.5-15.9-9.3,30.2,48.4,38-56.3,15.7-66.9-28.6-1-23.6,52.8-26.6,72.7.8,1.5,3.2,3.3,5.1,3.9,7.7-146.2,54-37.1,21.8-.4h0ZM398.7,800.3c-4.9,0-11.8-31-1.9-55.5-18.5-20.3-16.6,85.4,1.9,55.5ZM610.6,794.4c3.1,5.2,6.7,9.8,12.5,12.1,9.9-16.7,7.5-38.3,4.2-56.8-3-12-11-10.4-12.1.9-1,3.7,1.8,5.4,2.8,8.1,4.2,11.3,1.4,24.8-2.7,35.8-.4,1-3.5.3-4.7,0h0ZM365.7,797.8c6.2-14.8,7.1-4.3,5.7-28.5-44.3-10.5-22.8,30-54.6,39,12.1,19.7,42,9.1,48.8-10.6h.1ZM696,813.6c2.3-1.5,3.8-3.8,4-6.1-30.8-4.1-11.3-50.3-57.2-38.2-5,28,25.8,62.9,53.2,44.2h0ZM268.8,839.8c-3.9,7.6-10.3,11.9-19.5,12.2-2,5.4,1.3,12.4,8.3,11.2,33.3-9.3,30.9-67.5,46.8-93.8-3.1,2.9-3.5,5.8-5.1,8.1-3.2,4.9-8.7,7.9-9.1,14.9l4.9-7.3-7.7,22.6c-.4-5.6,1.7-9.5,2.4-15.3-8.4,18-11.5,29.1-20.9,47.3h0ZM716.1,777.3c-1.2-3.1-1.7-4.1-2.5-5.6.5,2.3,1.4,4,2.5,5.6ZM751.5,841.8c-11.7-18.4-13.1-24.7-22.3-43.1l6.1,24.2c-3.8-10.8-13.8-33.8-18.7-44.3,10.9,22.7,16.5,88.2,50.9,83,3.3-1.4,3.9-7.9,1.6-10.1-7.1-.2-13.6-3.2-17.6-9.6h0ZM482.1,842.6c4.4.5,4.4-3.5,1-4.4-24.5-2.3-48.9-6.5-64.2-27.4-11.6,4.2,8.7,16.5,12.5,18.6,15.5,8.8,32.4,12.1,50.7,13.2h0ZM531.8,841.9c10,3.3,80.4-14.7,63.2-31.3-16.3,20.1-37.3,24.7-61.9,27.2-3.7.8-2.7,1.6-1.2,4h0ZM525.1,839.7c-1-19.8-30.8-20.2-33.4-1.6-2.8,24.8,32.6,25.6,33.4,1.6ZM226.6,903.1c-1.6,4.3-8.1,5.9-12.9,4.2-37-7-49.2-48.4-41.7-81.9-17,33.4-2.5,78.7,30,97.1,28.3,17.2,58.2-21.1,27.6-39.3-10.8-6.3-27.8,5.4-19.2,16.6,9,10.7,19.7-6,16.2,3.3h0ZM387.4,977.3c-44.3-10.3-52.8-41.7-27.7-77.4,2.6-4.1,14.7-23,10.5-26.6-6.6-5.7-16.6-7.1-25.3-4.7-.7-2.9,1.4-5.9,4.1-6.9,6.3-2.4,10.8-5.7,16.2-10.1,5.2-4.2,16.2-3.6,20.4,2.3,15.2,19-19.2,54.4-10.5,67.9,5.8,4.9,15-6,39.7-.8,26.8,2.8,47.3,23.8,59.2,46.7,15.4-34.1,25-68.9,30.9-105.7-8.6-2.3-14.4-7.4-18.2-15.4-21.7.5-42.5-4.1-61.1-15h-104.1c2.1,49.9-8.5,242.3,8.4,288.1,62.4-27.8,113.1-80.9,140.2-143-14.5,2.5-29.6,4.9-44,6.4-5.7.6-7,10.2-5.5,14.2s.8,6.9-.2,10.4c-2.8,9.7-4.9,19-6.7,29.1-1.9,10.9,6.7,17-2.4,17.8-12.8,2-26.6,9.2-42.5,1.6,4-11.3,17.2-3.4,24-8.2,5.7-14.7,8-29.2,5.6-44.6-.2-2.8,2.3-6.7.7-9l-11.6-17.1h0ZM688.6,1119.6c17-53.1,5.7-230.8,8.8-288l-109.6.5c-16.6,11.5-39.4,13.9-59.1,15.1-3.3,7.3-8.7,12.7-17.2,15.1,19.5,104.2,78.9,209.1,177.1,257.3h0ZM808.2,885.7c-17.9-16.4-39.2,10.9-27.9,28.6,37.9,42.1,90.3-38.3,69.7-74.9,0,23-6.2,45.5-24.4,59.9-4.1,3.3-32.2,15.2-33.8-.7l9.1,3.8c9.2,2.4,14.3-10.7,7.3-16.6h0ZM414,964.9l8.5,4.3c2.8-4.3,2.3-3.1,6.2-1.6,4.5.9,4.9.4,5.5-3.7,4.8,2.5,7.5,4.5,9.9-1.6,6,3.6,8.3.5,4.7-5.2l7.4,5.1c1.9-2.9.7-5.5-.6-8.7,2.4,2,4.2,4,7.7,4.9-2.4-9-10-13.3-16.3-19-12.4-14.1-34.1-17-52-16.8-6.3.4-16.6,6.7-22.7.7-8.6-8.5,8.5-32.5,12.8-46.4,6.5-17.4-6.5-35.4-22.7-19.4l-14.3,7.3c20.4-.5,17.8,6.8,31.3,4.5l-6,3.4c-.5,31-46.2,56.6-13,87.9l1.5-3.4c3.2,12.6,19.3,14,29.8,17.4l-.3-9.8c-7.4-2.2-22.1-13.8-17.2-21.7,1.8,6.3,4.3,11.5,9.5,15,3.2,2.8,31.1,15.8,30.4,7v-.2ZM710.5,961.9c41.8-44.9,25.6-58.5-7.4-100.4,3.3,24.8,22.9,26.3,23.9,54.4,1.8,24.4-13.3,28.4-16.5,46ZM309.1,965.8c-.5-8-4.2-14.6-8.9-21.3-26-43.2,10.8-52.8,14.7-80.6-22.8,26.1-47.2,53.6-17.1,85.6,4.6,4.8,8,10,11.4,16.3h-.1ZM508,1246c84.3-1.9,159.1-52.5,180-123.2-99.5-48.3-158.1-153.3-180-258.6-20,108.4-72.7,211.5-177.1,258.6,16.3,60.6,84,121.7,177.1,123.2ZM303.1,1093.5c-9-28.1,10.8-24.7,9.8-46.5-5.9,10.7-16.1,22.3-29.2,21.9,11.1-6.7,23.6-13.7,26.7-27.6-8.3,7-14.7,14.4-25.4,18l2-4.1-8.6.3c12.8-4.2,27.1-10.7,32-24.4-7.5,5-24.2,19.8-33.4,12.1,18.5-4.5,38-17.9,38.5-38-4.5,5.7-7.6,11.7-12.6,16.7-5,5-21.5,15.3-29.6,10.1,10-2.4,19.5-3.5,27.1-11.1s14.6-16.4,14.6-26.4l.2-92.6c-6.3,7.3-6,16.3-6.3,25.6-6-13.9,4.4-25.8,6-39.7-8.7,8.8-11.6,20.9-13.9,32.9-4-17.1,13.2-29.9,13.8-45.5-42.6,56.9-4.9,55.9-4,92.3.2,27-33.1,56.9-52.9,27.3-12,12.4-21.2,36.7,2.1,41.4,7,.6,9,8.1,4.6,12.4-25.2,16.4-41,47.7-23.4,75.6,1.8-16.6,1-34.2,17.8-44.4-10.9,12.4-18.8,29.2-13.4,45.7-2.4-34.9,48.5-72.2,52.4-36.5l-1.2,9.3c-1.5,12.5,15.4,13,22.9,7.7l-3.9-34.9c-5.1,4.8-5.2,10.7-6.4,17.1-3.9-13.6,6.9-19.2,5.4-28.9-10,15.1-11,16-11.6,34.1h-.1ZM715,1094.4c-5.2-22.7,4.7-12.7-11.1-33.8-2.5,8.5,9.2,14.2,4.3,27.1-.7-6-1.5-11.8-5.7-16.6l-4.3,34.9c18.5,8,24.4,0,21.5-18.3-.4-5.9,3.4-10.9,9.1-12.4,22.9-3.2,37.9,20.9,43.2,41.1,2.9-12.4-4.5-22.4-9.5-33.6,12.5,7.2,13.8,28.5,13.6,41.8,17.4-29.1,2-57.9-22.9-75.8-2.4-2.2-4.6-6.7-1.6-9.7s5.6-2.9,8.3-3.7c21.4-6.7,11.8-28.6.5-41.3-12.2,24.6-42.1,9.9-49.2-10.5-20-45.9,42.9-45.5-7.1-107.5-.5,10.2,13.2,24.2,12.7,35.6-4.7-9-7.2-17.4-13.9-24.8,1.4,9.9,12.2,28.1,6.4,36.1-.7-7.9-1.5-15.4-5.9-21.8,5.2,44.4-22.9,121.9,41,130.6-17.9,5.2-33.3-12.1-41.4-26,.4,20,20.7,29.7,36,37.9-11.7,4.9-22.6-5.9-31.4-12.6,3.1,12.5,20.1,20.1,30.1,24.8-13.3.5-20.7-7.8-30.3-15.5,2.7,14.3,16,21.5,27.4,27.9-14.2.9-23.1-10.8-29.9-21.3.5,22.8,17.1,15,10.2,47.4h0ZM117.4,1050c36-4.4,16.7,47.5,46.2,50.2-9.6-9.4-12.7-22.9-5.3-33.8l-1.2,9.7c-3.4,15.6,18.1,33.3,29.9,18.3-23.7-25,34.1-32.4,36.8-69.5,6.9-42.1-19.9-72.5-57.3-89.4,79.2,95.2-18.4,117.7-15.5,62.8-19-12.5-42.6,17.8-24.1,33.7-10.5,4.5-20.5-2.2-33.9,9-13,9.8-10.3,32.4,6.8,36.6-2.4-13.3,2.8-25.8,17.7-27.7h0ZM929.8,1065.3c2.9-8.7,1.1-16.8-5-22.9-11-11-20.2-7.7-31.8-10.7,7.7-9.3,13.7-19.9,2.1-27.8-6.8-5-13.2-10.4-22.3-9.4-11.6,1.4-2,9.9-7.9,19.1-5.9,9.1-16.7,14.1-27.5,12.3-37.3-18.8-3.2-67.3,14-89.3-39.5,14.4-71.6,58.8-52.9,100.4,6.1,22.1,52.2,33,30.9,56.4,2.4,4.4,7,6.1,11.9,5.8,14.5-.8,19.4-15.2,19.1-27.8,4.8,10.1,1,21.1-8.1,28.4,17.5,1.8,19.1-23.4,23-35,9.3-25.3,48.8-16.3,41.6,12,6.5.7,10.9-5.2,13-11.5h0ZM381.8,1057.6l18-3.1c0-17.3,6.5-33.8,10.9-50-6.5-17.7,3.1-19.6,5.5-33.7l-17.8-3c-1.2-.2-4-1.7-4.7-.8-3.3,6.3,13.9,20.6,6.9,38.6l1.5,10.1c-.4-2.8-.8,39.2-16.1,36.2-3.1-.6-7.7-.3-9.4.5l5.1,5.2h.1ZM441.9,978c.5,0,1-2.5.5-2.6l-8.4-2.7c4.5-.8,8,0,12.7.8-3-4.5-7.4-4-11.9-3.4l-13.2,1.6c-2,.2-3.7,3.4-2.5,4.7l2.4-3.2c.5-.6,2.6.6,3.6.7,12.8,1.3,9.3,3.6,16.9,4.3v-.2ZM396.9,986c.7-3.3.3-7.8-4.6-7.9.8,2.8,2.5,5.7,4.6,7.9ZM419.1,984.4c-.2-.8-2.4-2.2-3.3-2.5s-2.7,3.1-1.9,3.4c2.2.8,4.5,2.9,5.2-.9h0ZM402.8,1051l9.5.5c-4.4-15.4,3.2-35.3,6.6-50.1-1.3-3.2-2.7-7.8-1.8-12s-3.8-2.6-4.5-1.5c-1.1,1.9-1.9,8.3-.8,8.4l3.8.5c-9.5,14.5-1.5,40-12.8,54.2h0ZM288,1000.5l-5.7,1.3c1.7.7,3.2.3,5.7-1.3ZM281.4,1002.9c-2.3-.2-3.4-.3-3.9-.2l3.9.2ZM403.2,1042.5c4.5-2.8,3.3-7.2,2.4-10.7l-2.4,10.7ZM882.5,1064.5c10.8,12.9,7.9,20.8,18,31.7,8.2-11.9,21.1-29.6,6.9-40.2-6.6-4.9-16.1-4.5-21.5,1.5l9.1,9.7-11-6.3c3.8,4.3,7.7,7.3,10.3,12.6-3.7.5-6.1-9-11.9-9h.1ZM125.6,1063.5c1.5-2.5,2.8-3.4,2.8-6.2-5,2.6-7.5,5.1-11.8,8.3,0-5.1,5.4-6.8,9.6-10-3.7-3.3-9.1-2.2-13.4-.4-18.4,8.3-5.5,31,3.8,42.2,10.1-12.6,6.2-22,16.9-32.2-2.9-5.2-3.6-2.7-7.9-1.7h0ZM267.2,1217.3c4.1,5.3,2.6,11.1,1.6,17.5,12.3-5.4,7.9-16,8.7-25.3,5.3,8.9,2.9,19.3-3.8,27.1,23-6.1,13.5-40.7-1.8-49.9-.9-.7-2.3-3.2-1.7-3.3l2.7-.4c18.2,2.5,28.2-18.2,19.9-33.5-23.5,20.6-53.7-13.4-59.8-35.3-2.6,10.1,4,17.3,4.7,26.8-15.1-25.5-9.5-60,9.5-82.1-35,16.2-41.7,62.5-30.3,95.3-9.9-9.1-9.7-31.2-8.3-45.8-9,11.9-5.8,28.8-5.2,42.9-5.7-9.1-3.9-22.6-3.7-32.9-27.1,27.1,18.5,59.6-21.1,69.6,4.6,13.3,20.3,20.4,33.5,15,8.7-3.5,9.7-14.9,12.9-13.9s7.6,16.3,28,20.4,10.8,3.7,14.1,7.9h0ZM790.9,1191.2c.5-.8,2.8-2,3.5-1.5,3.2,2.3,3.1,8.6,9.7,11.9,13.6,6.9,29.8,0,35-14-39.3-11.6,5.9-36.2-20.9-69.3,0,11.6,1.5,27.4-4.7,37.6,1.4-16.4,5.2-34.3-4.4-48.2.2,16.2,2.5,35.1-8.8,48.6,11.7-34.2,5.6-81-30.3-97.9,20.1,24.6,26.3,63.1,6.5,89.1.5-10.6,10.7-19.2,8.2-33.4-7.8,20.8-34.4,56.5-58.8,35.3-7,11.5-3.3,26.6,9.1,32.1l13.5.8c-9.2,12.8-20.2,20.5-17,38.6,1,6.4,4.2,13.1,11.2,14.7-5.7-9-7.1-18.4-2.4-27.3-.2,9.6-2.1,22.6,8.9,27.1-6.1-32.7,23.7-15.8,41.7-44.5v.3ZM433.3,264.1c0,7.8,3.8,13.4,4.9,20.1s1.4,14,4.4,20.4c2.2-14.9-2.9-28.6-9.2-40.5h0ZM870,589.8c15-21,21.8-50,10.7-73.3,9.4,51.7-16,87.2-62.4,107.3,21.6-4.6,39-17.6,51.7-34ZM681,678.4c25.9,18,53.2,32.8,78.9,52.2-18.1-20.7-53.6-39.7-78.9-52.2ZM737.2,698.4c-5.6-3.2-10.6-6.7-17.2-7.8,21.3,12.7,65,39.5,85.6,53-19.7-19.3-45.5-30.7-68.4-45.2h0ZM796,567.3c.6-3.5.6-7.1-1.3-10.3-1.1,22.1-17.4,35.4-38.1,41.7,6.6,2.6,12.1-2.1,18.2-5.3,10.9-5.7,19.3-14,21.3-26.1h-.1ZM794.1,631.5c7.3-1.4,14.1-2.6,20.3-6.4l-29.2,6.3c-15.6,4.3-32.3.2-47.7,4.6,19.3,1.6,37.8-.9,56.6-4.6h0ZM779.6,708c17.6,9.9,37.7,12.8,57.2,9.2l-36-3.5c-7.8-.7-14.2-5.3-21.2-5.8h0ZM853.4,745c10.3,9.8,20.7,19,31.5,27.3-7.2-13.3-18.9-21.3-31.5-27.3ZM824.3,936.8c4.7,5.1,39.2-20.5,36.1-25.9-10.4,11.4-21.7,19.1-36.1,25.9ZM882.5,792.1c0,3.3,1.4,6,3.1,8.5,7.3,11,10.7,23.3,13.9,35.3.7-16.7-7-31.1-17-43.9h0ZM857.5,807.6c8.1,14.2,12.5,28.4,14.9,44.1l.5-11.3c-1.6-6.2-8.7-32.5-15.4-32.8ZM870.2,801.9c6,14.1,10.8,26.2,14.5,40.2.3-14.6-5-29.6-14.5-40.2ZM865.1,806.4c5.6,15.7,10.4,23.9,13.2,40.1,1-15.2-4.4-29-13.2-40.1ZM889.1,779.9c5.7,11.2,11.2,20.5,18,30.6-3.4-11.5-8.9-22.9-18-30.6ZM798,820.6c3.4-6.2,4.7-14,1.4-20.7-1.6,9.5-.2,17.5-9.5,24,3.7,1.8,5.7-1,8.1-3.3ZM859.1,693c7.2-6.4,14.6-7,23.7-5.1-4.9-6.7-25.1-2.9-23.7,5.1ZM893.9,799l9.7,26.2c.3-10.1-3.6-19.1-9.7-26.2ZM675.8,757.6l18.8,33.3c-2.7-12.2-8.1-24.5-18.8-33.3ZM687,754.6c6.3,12.2,12.7,23,20.2,34.4-3.6-12.8-10.3-25.3-20.2-34.4ZM730.9,870.6l-11-8.3c3,9.7,25.8,22,31.3,11.7-8.3,1.4-14.4.9-20.3-3.5h0ZM684.8,762.6l12.9,21.7c-1.6-8.2-5.5-16.5-12.9-21.7ZM806.5,987c1.5-3.9,2.6-7.8,3.3-12-16.4,20.9-11.7,57.7,13.2,69.8-15.7-15.6-25.6-36.1-16.4-57.8h0ZM843.3,1034.8c-11.6-4.2-19.1-13.2-26.4-23.3,1.2,16.4,32.1,33.6,46.5,26.6-7.2-1.5-13.9-1.1-20.1-3.3ZM890.1,1012.8c0-6.7-3.6-13.6-11.1-13.2,10.7,12,8.9,11.6,5.4,26.9,6-2.7,5.6-8.6,5.7-13.6h0ZM801.4,1185.1c-1.7-4.5-2.6-9.6-4-14-4.8,13.7,8.1,32.6,22.6,26.6-7.4-.5-15.7-4.7-18.6-12.6ZM726.1,1160.6c-1.6,16.4,21.7,22.8,31.4,11.1-13.8,5-23.7,4.8-31.4-11.1ZM747.2,499.1c-3.3,15.4,16,27.5,28.5,18.7-18.7-3-17.3,4.5-28.5-18.7h0ZM722.1,472c9.2-9,20.1-15.1,32.9-18.5-13.3,0-27.2,5.5-32.9,18.5ZM722.2,481.1c-5.3,5.4-6.8,13.9-2.8,21.2l2.8-21.2ZM735.8,582.9c-4.7-1.1-9,1.8-13.7,1.9l-29.7.8c14.1,3.3,29.3,3.3,43.4-2.7ZM814.7,683.9c3.2-2.6,6-5.7,6.1-9.8-9.2,10.9-17.2,11.9-30.3,14.7,9.2,1.9,17-1.2,24.2-4.9ZM788.4,891.3c-9.8,2.7-6.4,26,4.6,24.3-8.3-7.1-9.4-15.2-4.6-24.3ZM671.2,804.9c3.4,9,14.6,12.5,21.5,6.9-11.3,0-12.5-.8-21.5-6.9ZM313.7,692.7c5.3-3.2,10.8-5.1,14.7-10.5-22.5,12.6-47.9,24.1-65.5,42.5l50.9-32h-.1ZM237.9,589.1c-10.3-7.1-15.7-17.6-16.2-30.6-8.9,17.6,17.1,40.3,33.5,40.1l-17.3-9.5ZM299.8,861.4c-15,11.4-11.4,15-33.7,13.5,8.2,9.9,31-2.6,33.7-13.5ZM224,713.4l-30,3.7c-5.8.7-11.2-3-17,.4,16.2,2.2,32.3,2.3,47-4h0ZM166.3,920.6c6.2,9.3,16.5,14.6,27.1,16.6l-27.1-16.6ZM129.7,805.7c-6.1,8.5-10.3,19.3-9.3,30.5l9.3-30.5ZM218.5,803.1c-3.8,5.4,1.7,24.9,10.8,21.8-7.7-4.8-10.3-12.5-10.8-21.8ZM321,765c-6.2,6.4-10.4,14.1-11.8,23.4,4.3-7.6,8.3-14.9,11.8-23.4ZM140.7,819c-5.1,6.6-6.1,15-5.5,22.9,2.3-7.9,4-14.9,5.5-22.9ZM134.3,687.1c7.5-.9,13.7-.4,21,2.9-4.4-7-14.2-7.4-21-2.9ZM150.3,787.8l1.6,1.6,12.4-12.4-1.6-1.6-12.4,12.4ZM209.7,978.1c8.2,28.9,7.9,43.1-11.6,65,21.6-9.7,24.8-47.1,11.6-65ZM198.6,1021.3c2.1-2.9,3.3-6.6,2.8-10.5-8.6,20.2-28,27.6-48.8,29.3,17.7,3.2,35.4-3.8,45.9-18.7h.1ZM139.9,1000.2c-14.3-1.3-14.9,22.5-4.6,28.3-3.8-11.8-8-20.1,4.6-28.3ZM291.3,1160.5c-3.9,12-14.5,16.1-26.9,13.5,8.7,9.7,31.2.2,26.9-13.5ZM215.5,1193c5.3-5.2,6.4-12.6,5-19.9-4.3,15.1-6.8,23.5-24.3,24.6,7.3,3.1,14.9-.3,19.3-4.7ZM254.1,1003c-1.2,10.3,11.6,14.8,20,12-9-1.1-15.9-3.6-20-12ZM253.5,452.7c16.5,5.8,22.8,7.2,36.3,19.5-3.7-12.3-25-20-36.3-19.5h0ZM255.3,517.9c5.8-2.8,9-9.5,8.2-16.2-11.5,21.7-7.1,12.2-28.2,16.3,6.6,2.9,13.9,3,20,0h0ZM293.2,497.1c4.7.3.2-16.7-2.9-17.9l2.9,17.9ZM272,577.9c-7-4.2-11.7-9.9-16-17.4,3.6,25.5,41.3,30.7,62.1,27.4-18.5-2.3-29.1.2-46.1-10ZM195.3,676.3c7.4,22.1,56.8,15.1,72,8.4-23.1,4.4-53.9,9-72-8.4h0ZM236,903.4c-.1-5.5-1.3-11.5-6.8-13.1,6.7,13,5.6,14.9-2.8,26.9,7.1-.4,9.8-7.3,9.6-13.8h0ZM349.9,805.4c-7.9,6.9-17.3,8.1-27.2,6.2,8.8,7,22.9,4.3,27.2-6.2ZM302,522.8c4,11.9,19.5,14.6,28.3,7-11.6,3-19.4.3-28.3-7ZM458.9,583.1c-10.3-3.4-19.9-8.9-29.6-13.5s-4,12.6,13.4,21.6c18.8,9.6,38.6,14.6,59.8,16v-14.2c-14.9-2.9-29.2-5-43.7-9.8h.1ZM556.4,582.3c-13.7,6.5-28.4,7.4-43.6,10.2-.7,5-.6,9.9,0,15,21.6-2.3,74.4-12.8,76-40.7l-32.6,15.5h.2ZM573.6,288.5l5.4-22.7c-5.5,6.1-12.6,34.6-8.5,40.3,2.1-6.5,1.7-12,3.1-17.6h0ZM622.6,212.8l-2.4,27.7c4.3-8.9,6.3-18.9,2.4-27.7ZM390.9,224.5l.3-11.7c-6.9,1.5-.6,25.3,1.3,27.9.2-6.5-.7-11-1.6-16.2h0ZM656.8,978l-40.4-25.7-40.2,26.2,14.3-44-39.9-28.1,49.2-1,16.7-45.1,16.3,44.9,28.6,1c6.3.2,12.1-1.9,19.2.8l-37.9,26.7,14.1,44.4h0ZM616.6,948.5l34.6,21.4-12-37.5,32.7-23.3-41.4-.9-13.9-39.1-14.3,39-42.3,1.3,34.2,23.9-12.4,37.7M367.5,856c-1,.6.3,4.1,1.4,4.4,3,.9,7.1-2.7,5.8-4.3-2.1-.7-5.9-.9-7.2,0h0ZM481.5,1216.9l-1.6-8.1c7.4,4.9,1.7-4.1,11.9-1,7.9-15.8,6.2-45.8,6.6-64.5-6.8,2.9-11.9,6-18.6,10l-2.3-4.7c-7.7,4.7-16.6,12.2-26.7,10,1.5-5.9,4.2-11,7.8-17.3-8.4-3.5-9.6,7.8-13.3,9.1s-11.5-1.5-13-7.2c-8.8-.9-18.2-6.9-17.9-16.3,7.6-1.1,15.5-.8,20.6-6-13.2-1.1-2.1-12.4,3-17.3-3.8-.5-8-1.1-11.3-2.9,1.3-8.3,11-12.3,17.3-16.3-4.1-3.4-12.1-8.1-10.7-14.6,10.6.9,20-.8,28.7-7.8l-13-2,3.5-6.4-3.7-5.7,19.2-9.5c-3.3-1.8-10.8-4.3-9.3-9.3l12.3-4.3v-5.4c.1,0,7.5-2.3,7.5-2.3-4.4-2.3-8.2-3.2-9.5-7.8,4.9-5.1,13.9-5.4,18.3-10.7s-.6-3.5,0-3.9l3.5-2.5c-4-2.7-6.5-3.2-1.6-6.8,17.8-10.2,13.9-21.2,21.2-20.3s3.5,10,16.2,17.9c2.2,1.4,4.3,3.4,6.1,5.2l-5.3,4,12,8.3c-1.3,2.1-3.4,3.2-6.5,4.4,5.4,5.9,13.6,8,21.2,11,1.3,3.6-2.4,7-6.9,8l7.4,6.4c3.6,3.1-2.2,7,4.2,12.9l-4.8,3c6.5,5.4,12.8,9.6,21.4,9.8,7.5,2.8,0,7.5-3.7,9.5-.8.5.8,2.7,1.4,4.5l-10.8,1c13,12.7,18.8,13.2,36.2,15.1,2.5,9.2-6.3,6.2-6.2,15.8l-9.8,2.8,9.5,10.6c2.1,4,1,4.5-3.6,6.4,5.4,5,12.3,7.9,20.5,9,0,11-22.3,13.9-30.6,12.1l1.1,6.5c-6.6,3.7-12.7,0-19-4.3-2.5,2.5,10.9,11,6,13.1-7.7,3.3-15.2.6-21.9-2.3-2.1,2.6-1.6,4.7-5.4,2.1-3.6-1.6-3.5-3-6.9.8-3.7-2.3-6.7-5.1-10.4-8.8-1,18.7-.7,37.8,5.1,55.9,3.8,1.9,8.5,2.2,12.5,1.1,1.3,7.2-3.7,4-5.6,6.1,1.1,1.5,2.6,4.2,1.5,6-2.4,3.3-7.5-1.6-8.7-.4l-2.7,2.7c-1.9.3-2.6-2.5-4.1.8l-10.3,2M517.2,998.9c2.6-8.3,5.4,8.1,16,.9l-11.6-7.2-3.1,1.8-7.6-9.1c-.6-.7.5-4.3,1.4-4,.9.3,2.3,1,2.7,1.6l3.4,6.6c2.6-.3,5.8-1.1,8.5-2.1-7.8-5.7-12-11.2-16.8-20.3-5.3,7.8-9,13.6-16.2,19.9l8.7,1.6c-8.2,7.7-17.9,17.3-28.9,21.5,5.4,4.4,12.3,2,18.2,0,8.3-3,7.4-11.7,14.6-10.4l-9.5,12.6c5.2-1.1,8.4-3,12.4-5.1l-.6-5,8.6-3.1-.2-.2ZM535.4,1018.8c4.1,4.5,13.4,1.5,15.7-1.2-18.6-4.9-16.9-10-30.2-16.5-2.2,2-4.1,2.9-6.9,4-.3,3.4,4.7,9,8.6,9.1,8.4.3,5.2,2.4,11.7,8.1l1-3.5h.1ZM505.8,1037.9c12.2-9,18.8-15.4,6.3-28.5-4.3,7.1-17.7,29.7-22.4,36.1,4.5,0,12.2-5.7,16.1-7.5h0ZM474.2,1057.5c7.9-3.9,11.7-12,15.9-18.6l-10.6.4c.4-5,12.7-4.4,15.7-8.4,4.4-5.7,7.2-10.7,10.7-17.5l-15.2,2.7-.8-2.7c-11.5,9.2-13.2,12.5-26.8,18,3.7,4.6,8.3,4.2,13.4,2.1-.1,6.6-18.5,12.8-22.6,16.1,4.8,1.9,5.9,4.2,6.5,8.8l3.8-2.6c.7-.4,2.4,1.6,3.4,1.8l5.7-7.4.8,7.2h.1ZM418.2,1130.1c5.1,9.4,14.5,11,24,7.4l-2.2,4.9,4.5.9c-1.1,1.7-1.8,2.6-1.1,4.1,1.3-1.4,6.4-11.1,8.3-11.2l2.3,1.1,5.4-4.5c.2,1.7.3,2.3.3,3,1.7,1.4,5.9-2.2,7.4-3,1-.6,0-3.2.1-4.3,3.1-1.2,2.9-1.5,3.2-4.4l13.4-6.1-1.7,6.2c9.9-.3,14.2-13.4,18.7-20.9-4.4-1.8-14.1,7.8-15.4,2.8s2.4-5.6,4-6.1l-1.1,4.6c3.8-2.1,4.8-3.7,7-6.8l3.4,2.1c1.6-2.1,3.4-4.1,5.8-6.1l-.6-1.8c6.6-3.6,2.6-7.7,10.1-13.5l9.2,17.3,2.6-3.1,4.9,6.6,3.2-2.4,8.4,7.7,1.3-4.6,10.5,6.5,2.4-3,9.7,1.2-2.1-5.2c1.6,0,4.4.9,5.7,2.2s.8,6-.9,6c-2.9,0-6.8-.4-8.6.5-11.8,5-9.9-6.9-17.2,1.6l-8.5-7.5c-5.5,4.4-8.3-7.4-8.8-.3l3.7,11.5-3.4,2.6c9.1,6.2,13.8,16.6,25.7,14.4-3.2-6.1-8.4-10.2-8.6-17.5l12.5,16.7,1.5,6.9,11.1,9.5c2.6-4.5,2.8-2.5,6.5-1.5l-2.6-8.5c10.9,4.9,22.2,4.8,31.7-2.2-5.7-2.4-10.3-4.6-15-8-14-10.3-17.8-2.4-22.7-9.2l-3.8,3.2c-1.9-1.7-4.2-4.1-5.3-5.8,4.2,1.3,6.1.6,8.6.7,7.9.4,15.4,5.5,24.1,1.8-4.9-8.1-18.4-13-17.8-17.8l11.8,1.8-.2-2.7c0-.4,1.8-.5,2.3-.8l10.3-7.5c-17.7-2.3-34.8-9.3-43.7-25.4l10.6,2.9,1.9-3.6,9.3-3.6c-6.4.2-38-20.2-36-25.9,4.3-1.6,4.2,3.9,14.2-2.4l-12.8-7.7c-7.5,6.3-9.3-6.1-17.1-4.4-2.9,8.6,0,15.2,8.9,18.1l-3.2,2c9,7.4,20.2,5.3,19.7,12.5-6.2-2.6-15.5-6.7-20.9-10.2l-2.2,2.3-8.6-10.8c-7.5,7-1.8,13.1,2.9,18.9l2.7-2.1,7.6,7.5.4-4,6.1,5.4c3.3-3.1,6.7-4,8.5.9,1.9,3.4,5.9,4.4,7.1,9.2l-11.9-7.2c-3.5,4.6-6.4-4.3-15.3-.5,2,10.2,7.3,17.2,15.5,23.1-7.5,3.6-20.9-4.1-26-9.5l-4.2,4.5c-11.8,1.4-7,5.3-18.5,5.5.1,1.3-.3,4.5-1.4,5.3-9,6.6-7.3,3.7-16.3,5.4l-14.7,2.6c2-5.3,6.4-9.4,11.7-9.3l-2.8,5c5.3-1.5,8.7-3.2,13.8-5.5l-.8,4.1c14.8-12.3,11-9.4,20.2-26.8-5.4.2-8.4,3.5-12.1,6l-1.4-3c-4.7,4.2-14.8,3.2-21.3,3.3l.2-4.2c0-.7,2.8.7,3.4.3l8.3-4.9-2.3,5.5c4.5-.3,9.4-2.4,13.3-4.4l3.3,1.1c2.3.8,3.1-6.1,9.6-3.4,3.4-6.5,8.8-13.4,6.5-21.3l-5.7,4.9c-4.7.4-10.4,3.6-15.4,4-17.4,19.1-20.9,13.6-29.8,18.7s-12.4,4-19.4,4.9c1.7,4.3,5.4,7.8,10.7,6l.2,3.7,8.7-1.4.4,2.2,7.2-.3c-3.4,4.1-7.1,5.6-12,6.2v-4c-8.6,2-17.3,5.4-22.1,13.4,6.2,1.5,11.3.2,18.2-.7-4.1,6.2-15.1,10-16.7,17.4,24.8,1.5,11.1-3.6,25.8-7,1.7-2,4.6-5.9,7.8-4.7l-2.1,5.1,8.1-1.4-1.6,5.8,12.3-6.5c0,7.2-15.5,9.5-15.4,8.4v-2.5c-2.9-1.5-8,0-10.4,2.5-.9-.7-3.2-1.5-4-.7-10.5,7.7-21.4,13.1-34.8,15l-.2.2ZM529.1,1080.4c-7-9.7-7.1-24.5-17.8-30.5l-14.5,30.8c7.3-3.2,13.1-7,19-10.4,3.4,5,6.5,9.5,13.2,10.1h0ZM514.7,1105.8l8,5.7c4.2-10.6-4.5-16.3-8.2-25.4-.7-1.3-4,1.1-4.4,2.7-2.5,10-6.8,18.1-13.3,27.3,7.3-.3,12.5-6.4,17.8-10.3h0ZM522.3,1135.1c-1.1,8,4.7,12.6,8.2,18.1l3.3-3.9,6.3,5v-8.2c6.2,6.9,14,11.6,23.4,9-11.9-11.7-7-16.6-9.3-19-16.7-5.5-17.3-3.5-39.6-26.1-4.1,4.1-9.3,4.5-5.9,11.6l5.7-3.8,4.6,7.6c5.5-.3,4.1,7.1,5.7,6.3l3.3-1.7,2.4,6.4,5.6-1.8,3.2,8.4c-4.9.5-.7-2.6-9.1-3.1l-7.8-5.1v.3ZM472,1147.2l9.4-6.3,1.4,5.9c5.3-2.6,7.9-6.5,9.3-11l2.4,4.5c4.2-4.9,5.5-10,7.3-15.3,2.4,0,5.2-1.3,4.6-3.8s-1.5-3.7-2.9-3.2c-5.5,2-11.2,2.3-15.4,7.6l9.7.2c-5.5,2.9-12.2,2.1-18.3.7-11.6,4.8-18.8,17.1-23.7,28.2,6.9.4,11-3.9,16.2-7.4h0ZM533.3,1069.3c2.5,12.6,24.9,23,35.8,16-24.4-.7-21.7-9.2-35.8-16ZM558.9,1091.6c-2.2-1-4.9-1.2-7.8-.9,23.4,17.4,24.2-6.6,16,4.5l-8.2-3.7h0ZM494.1,999.3c1.9,5.6,18.3-10.3,15.6-13.9l-15.6,13.9Z"/>
</svg>